<?xml version="1.0" encoding="UTF-8"?>
<svg id="Layer_1" data-name="Layer 1" xmlns="http://www.w3.org/2000/svg" viewBox="0 0 555 120.94">
  <defs>
    <style>
      .cls-1 {
        fill: #fcfcfb;
      }

      .cls-2 {
        fill: #fff;
      }

      .cls-3 {
        fill: #fefefe;
      }

      .cls-4 {
        fill: #281d11;
      }

      .cls-5 {
        fill: #281d10;
      }

      .cls-6 {
        fill: #291e11;
      }
    </style>
  </defs>
  <path class="cls-2" d="M.07,120.88C.07,81.5.1,42.11,0,2.73,0,.44.45,0,2.75,0c183.17.07,366.33.07,549.5,0,2.3,0,2.75.45,2.75,2.73-.09,38.38-.09,76.76,0,115.14,0,2.5-.57,3.07-3.08,3.07-183.95-.07-367.9-.06-551.85-.06h0Z"/>
  <path class="cls-5" d="M35.38,12.26h52.77c-1.78,2.46-3.28,4.58-4.83,6.65-1.71,2.28-2.09,4.54-1.36,7.46,5.15,20.36,9.91,40.82,15.91,60.96,1.24,4.17,3.15,7.95,6.16,11.99.49-11.44.04-22.23-.05-33.52,1.94,1.25,3,2.76,4.13,4.16,2.66,3.29,5.4,6.53,7.93,9.92,1.5,2.01,3.25,2.78,5.74,2.51,3.08-.33,7.08,1.03,9.05-.86,2.02-1.93.58-5.9.61-8.97.11-13.13-.02-26.25.16-39.38.08-5.9-1.26-11.18-4.95-15.87-1.13-1.44-1.91-3.16-3.08-5.12h37.36c-.31.7-.44,1.24-.75,1.65-5.03,6.8-6.08,14.47-5.89,22.73.33,14.34.05,28.69,0,43.03,0,4.34.34,8.64,1.1,12.9.37,2.06,1.27,3.87,2.82,5.91,0-4.96.27-9.37-.08-13.74-.32-4.01.02-7.99,0-11.97,0-.63-.14-1.43.53-1.81.88-.5,1.43.22,2,.75,2.94,2.75,6.21,5.07,9.44,7.46,2.74,2.03,5.81,1.23,8.74,1.48,1.54.13.95-1.48.96-2.34.13-9.57.23-19.13.27-28.7.03-6.43-.13-12.86-.05-19.28.07-5.5-1.03-10.58-4.5-15.02-.65-.83-1.45-1.7-1.39-3.08h35.81c-7.48,8.6-6.89,18.49-6.87,28.26v14.13c11.26-16.52,22.23-32.44,34.07-47.98,12.38,15.48,23.3,31.57,34.36,47.79,1.1-1.1.43-2.24.44-3.22.06-7.12-.1-14.24.05-21.36.11-5.4-1.11-10.34-4.06-14.87-.47-.72-.79-1.54-1.47-2.9h9.6c7.04.03,14.09.11,21.13.07,1.96-.01,2.33.47,1.49,2.27-2.65,5.74-4.12,11.73-3.61,18.11.1,1.24.05,2.38,1.31,3.18,6.45,4.11,12.87,8.27,19.77,12.72-.35-11.76,1.83-23.17-3.34-33.93-.56-1.17-1.11-2.35,1.13-2.34,9.94.04,19.88.02,29.98.02-.09,1.78-.96,3.09-1.53,4.49-1.57,3.84-2.75,7.8-2.78,11.95-.13,19.02-.16,38.04-.25,57.06-.02,4.42,1.03,8.58,2.73,12.62.42,1,1.11,1.96.84,3.12h-32.17c5.9-8.21,6.05-17.14,5.62-26.2-.05-1.04-.14-1.96-1.15-2.58-6.53-3.97-13.04-7.96-19.94-12.17,0,9.47-.26,18.55.12,27.6.17,3.98,2.48,7.57,4.44,11.07.66,1.18,1.14,2.05-.86,2.05h-31.86c8.08-14.45,3.43-29.75,4.51-44.67-3.84,5.48-7.74,10.93-11.5,16.46-6.88,10.12-13.75,20.26-20.48,30.49-1.73,2.63-2.57,2.21-4.3-.06-10.96-14.35-20.23-29.86-30.89-44.41-.36-.49-.44-1.31-1.37-1.34-.8.67-.37,1.62-.38,2.42-.11,6.34.04,12.69-.25,19.02-.33,7.21,1.17,13.94,4.73,20.17,1.44,2.53.58,2.72-1.86,2.8-30.73.91-61.44,2.1-92.07,4.86-12.24,1.1-24.47,2.36-36.62,4.31-1.08.17-2.17.21-3.27.31-.03-.43-.13-.71-.04-.86,5.55-9.06,3.26-18.19.3-27.35-.55-1.71-1.12-2.35-3-1.22-6.33,3.76-12.79,7.29-19.15,11-2.34,1.37-3.87,7.4-2.59,9.85,1.49,2.86,3.06,5.68,4.6,8.51.56,1.03.85,1.77-.83,2.04-12.13,1.94-24.25,3.95-36.38,5.93-.17.03-.37-.16-.7-.31,1.88-3.39,3.72-6.79,5.64-10.14,5.47-9.54,7.03-20.33,9.86-30.7,4.45-16.3,8.68-32.65,13.16-48.94,1.07-3.9.78-7.11-2.3-9.99-2.16-2.02-4.05-4.32-6.57-7.03h0Z"/>
  <path class="cls-6" d="M359.54,12.01c13.2-.14,25.79-.48,38.6-.1-.21.69-.21,1.19-.47,1.48-5.52,6.29-6.6,13.86-6.51,21.82.09,8.17.02,16.33.72,24.75,3.79-5.94,7.65-11.84,11.36-17.83,7.16-11.55,15.5-22.28,23.23-33.45,1.3-1.88,1.9-1.78,3.2.01,7,9.65,13.28,19.76,19.58,29.86,4.47,7.17,8.83,14.42,13.32,21.57.93,1.47,1.3,2.6.16,4.18-12.41,17.1-24.76,34.25-37.56,51.98-11.28-18.22-22.34-36.09-33.4-53.97.53,14.21-2.74,28.81,5.34,42.32-7.07-.44-13.6-.9-20.13-1.25-10.15-.55-20.34-.19-30.47-1.36-1.26-.14-2.41-.07-2.4-1.93.06-9.95.03-19.9.03-30.39,4.42,3.36,8.35,6.38,12.3,9.35,3.15,2.37,6.82,1.62,10.34,1.55,1.29-.02,1.07-1.21,1.07-2.06.01-17.46.03-34.92,0-52.37,0-3.11-1.98-5.37-3.77-7.63-1.51-1.91-3.06-3.76-4.53-6.55v.02Z"/>
  <path class="cls-5" d="M514.85,116.26c-15.88-1.9-31.33-3.75-47.2-5.66,1.75-3.46,4.32-6.03,5.56-9.37.43-1.17.87-2.2.55-3.5-6.03-24.37-12.04-48.75-18.01-73.13-1.08-4.4-3.63-8.05-6.23-12.35h33.85c.03,1.16-.89,1.79-1.37,2.61-2.48,4.28-3.43,8.59-2.31,13.68,3.09,13.99,6.77,27.81,11.43,41.58,1.41-5.7,2.83-11.39,4.24-17.09,2-8.09,3.72-16.26,6.07-24.25,1.41-4.78.57-8.68-2.29-12.48-.91-1.21-1.98-2.38-2.46-4.26h35.49c-.88,2.99-2.87,5.17-4.23,7.68-3.81,6.99-4.73,14.79-6.63,22.3-4.78,18.96-9.3,37.99-14.03,56.96-.56,2.27-.15,4.09.98,5.98,2.16,3.6,4.24,7.24,6.6,11.28v.02Z"/>
  <path class="cls-6" d="M49.03,77.19c1.22-6.82,3.42-13.21,5.35-19.67,2.43-8.08,4.86-16.16,7.35-24.22.37-1.2.54-3,2.21-2.94,1.78.07,1.98,1.93,2.36,3.26,2.63,9.18,5.2,18.38,7.8,27.57.24.84.79,1.58-.51,2.16-8.28,3.71-15.66,8.96-23.41,13.56-.25.15-.59.15-1.14.28h-.01Z"/>
  <path class="cls-4" d="M252.56,55.07c-.25.42-.45.8-.7,1.15-4.54,6.46-9.1,12.9-13.6,19.38-.93,1.33-1.56,1.64-2.59.06-4.07-6.23-8.23-12.42-12.37-18.6-.69-1.04-.8-1.95-.08-3.06,4.09-6.23,8.14-12.47,12.17-18.74,1.16-1.8,1.84-.37,2.42.37,3.09,3.94,6.11,7.92,9.13,11.91,1.61,2.13,3.18,4.29,4.77,6.43.26.35.53.69.85,1.1h0Z"/>
  <path class="cls-6" d="M428.48,36.34c4.87,8.15,9.53,15.94,14.19,23.74.71,1.19,1.01,2.24,0,3.61-4.88,6.62-9.66,13.3-14.38,20.04-1.17,1.67-1.8,1.82-2.96,0-4.52-7.12-9.18-14.16-13.73-21.26-.53-.83-1.41-1.67-.43-2.97,5.75-7.59,11.42-15.25,17.31-23.15h0Z"/>
  <path class="cls-1" d="M57.34,66.04c2.11-6.75,4.22-13.5,6.62-21.19,1.49,5.22,2.66,9.44,3.91,13.64.39,1.3.03,2.06-1.15,2.69-3,1.62-6.11,3.07-9.39,4.86h0Z"/>
  <path class="cls-3" d="M236.91,68.52c-2.68-3.93-5.01-7.44-7.45-10.89-.78-1.11-1.11-2-.23-3.27,2.66-3.83,5.2-7.74,7.87-11.75,2.77,3.7,5.36,7.18,7.97,10.65.86,1.14,1.28,2.13.22,3.54-2.8,3.72-5.43,7.56-8.39,11.72h0Z"/>
  <path class="cls-3" d="M437.8,60.94c-.32.54-.57,1.03-.88,1.47-3.04,4.25-6.11,8.47-9.1,12.75-.79,1.13-1.19,1.36-2.04.03-2.69-4.21-5.47-8.37-8.27-12.51-.81-1.2-.71-2.05.22-3.21,3.11-3.91,6.11-7.92,9.07-11.95,1.08-1.48,1.7-1.71,2.75.08,2.36,4.02,4.9,7.94,7.37,11.9.29.46.57.92.89,1.45h-.01Z"/>
</svg>